<?xml version="1.0" encoding="utf-8"?>
<!-- Generator: Adobe Illustrator 24.3.0, SVG Export Plug-In . SVG Version: 6.00 Build 0)  -->
<svg version="1.1" id="Layer_1" xmlns="http://www.w3.org/2000/svg" xmlns:xlink="http://www.w3.org/1999/xlink" x="0px" y="0px"
	 viewBox="0 0 162 195.6" style="enable-background:new 0 0 162 195.6;" xml:space="preserve">
<g id="XMLID_1_">
	<path d="M82.1,95.5h-2.9c-0.7,0-1.4-0.1-1.9-0.3s-0.9-0.4-1.3-0.8c-0.3-0.3-0.6-0.7-0.7-1.1c-0.1-0.4-0.2-0.9-0.2-1.4
		s0.1-1,0.3-1.4s0.4-0.8,0.7-1.2c0.3-0.3,0.7-0.6,1.1-0.8c0.4-0.2,0.9-0.3,1.4-0.3c0.4,0,0.9,0.1,1.3,0.2c0.4,0.1,0.8,0.4,1.1,0.8
		c0.3,0.4,0.6,0.9,0.8,1.6c0.2,0.7,0.3,1.6,0.3,2.6L82.1,95.5L82.1,95.5z M100.4,87.3h-1.6v8.2h-15v-2.8c0-0.8-0.1-1.5-0.2-2.1
		C83.5,90,83.3,89.5,83,89c-0.2-0.4-0.5-0.8-0.8-1.1s-0.7-0.5-1-0.7c-0.4-0.2-0.7-0.3-1.1-0.3c-0.4-0.1-0.7-0.1-1.1-0.1
		c-0.8,0-1.6,0.1-2.2,0.4c-0.7,0.3-1.2,0.7-1.7,1.1c-0.5,0.5-0.8,1-1.1,1.7c-0.3,0.6-0.4,1.3-0.4,2.1c0,0.6,0.1,1.2,0.3,1.8
		s0.5,1.1,1,1.6c0.4,0.5,1,0.9,1.8,1.2c0.7,0.3,1.6,0.4,2.7,0.4h2.8c-0.1,0.6-0.3,1.1-0.7,1.5s-0.9,0.8-1.5,1.2
		c-0.6,0.3-1.3,0.6-2.1,0.8s-1.7,0.3-2.6,0.4c0,0.3,0.1,0.5,0.1,0.8c0,0.2,0.1,0.5,0.1,0.8c1-0.1,2-0.3,2.9-0.5s1.7-0.5,2.4-0.9
		s1.3-0.9,1.8-1.6c0.5-0.6,0.8-1.4,1-2.4h16.8L100.4,87.3L100.4,87.3z"/>
	<rect id="XMLID_59_" x="103.8" y="79" width="1.6" height="18.1"/>
	<path id="XMLID_58_" d="M106.4,76.6H106c-0.6,0-1.1-0.1-1.5-0.4c-0.4-0.3-0.6-0.6-0.6-1.1c0-0.2,0-0.4,0.1-0.5s0.2-0.3,0.3-0.4
		c0.1-0.1,0.3-0.2,0.5-0.2s0.4-0.1,0.5-0.1c0.2,0,0.3,0,0.4,0c0.1,0,0.2,0,0.3,0.1l0.2-0.9c-0.2,0-0.4-0.1-0.5-0.1
		c-0.2,0-0.3,0-0.5,0c-0.4,0-0.7,0-1,0.1s-0.5,0.2-0.7,0.4s-0.3,0.4-0.4,0.6c-0.1,0.2-0.1,0.5-0.1,0.8c0,0.2,0,0.4,0.1,0.6
		c0.1,0.2,0.1,0.3,0.2,0.5c0.1,0.1,0.2,0.3,0.3,0.4c0.1,0.1,0.2,0.2,0.3,0.2h-1.4v0.9h3.9V76.6z"/>
	<path d="M68.8,95.5H57.2c0.1-0.6,0.3-1.1,0.6-1.7c0.3-0.6,0.6-1.2,0.9-1.7c0.3-0.6,0.7-1.1,1.2-1.6c0.4-0.5,0.9-0.9,1.4-1.3
		c0.5-0.4,1-0.7,1.6-0.9s1.2-0.3,1.8-0.3s1.1,0.1,1.7,0.2c0.5,0.2,1,0.4,1.3,0.8c0.4,0.4,0.7,0.9,0.9,1.6c0.2,0.7,0.3,1.5,0.3,2.5
		L68.8,95.5L68.8,95.5z M70.5,92.7c0-0.9-0.1-1.7-0.3-2.5s-0.5-1.5-1-2c-0.4-0.6-1-1-1.7-1.4c-0.7-0.3-1.5-0.5-2.5-0.5
		c-0.6,0-1.3,0.1-1.8,0.3c-0.6,0.2-1.1,0.4-1.7,0.8c-0.5,0.3-1,0.7-1.5,1.1c-0.5,0.4-0.9,0.9-1.3,1.4v-11h-1.6v13.4
		c-0.3,0.6-0.6,1.2-0.8,1.7s-0.4,1.1-0.6,1.5H44c-1.4,0-2.5-0.3-3.4-0.8c0-0.1,0-0.2,0-0.4c0-0.1,0-0.3,0-0.4v-6.6H39v6.2
		c0,0.4,0,0.7-0.1,1s-0.2,0.5-0.3,0.6s-0.3,0.3-0.5,0.3c-0.2,0.1-0.5,0.1-0.8,0.1H24.9c-0.3,0-0.6,0-0.8-0.1s-0.4-0.2-0.6-0.4
		c-0.2-0.2-0.3-0.5-0.4-0.9C23,93.7,23,93.2,23,92.5v-5.2h-3.2c-1.8,0-3.1,0.4-4,1.3c-0.9,0.9-1.3,2.1-1.3,3.8v3.1h-3.2
		c-0.7,0-1.3-0.1-1.9-0.2c-0.6-0.1-1.2-0.3-1.7-0.6c-0.5-0.2-0.9-0.5-1.2-0.8c-0.3-0.3-0.6-0.6-0.8-1c-0.2-0.3-0.3-0.7-0.4-1.1
		c-0.1-0.4-0.1-0.7-0.1-1c0-0.6,0.1-1.2,0.2-1.9c0.2-0.6,0.4-1.2,0.7-1.7c-0.2-0.1-0.4-0.2-0.6-0.3s-0.4-0.2-0.6-0.4
		c-0.4,0.5-0.7,1.2-0.9,2c-0.2,0.8-0.3,1.6-0.3,2.5c0,0.4,0,0.8,0.1,1.2s0.2,0.9,0.4,1.3c0.2,0.4,0.5,0.9,0.9,1.3
		c0.4,0.4,0.8,0.8,1.4,1.1s1.2,0.6,2,0.8s1.7,0.3,2.7,0.3l0,0h4.9v-4.5c0-0.8,0.1-1.5,0.3-2s0.5-0.9,0.9-1.2s0.8-0.4,1.4-0.5
		c0.5-0.1,1.1-0.1,1.8-0.1h0.9v4.7c0,0.7,0.1,1.2,0.3,1.7s0.4,0.8,0.7,1.1s0.6,0.5,1,0.6s0.8,0.2,1.2,0.2h0.6h12.6
		c0.6,0,1-0.1,1.4-0.3s0.7-0.4,0.9-0.8c0.2,0.2,0.5,0.3,0.7,0.4c0.3,0.1,0.5,0.2,0.8,0.3s0.6,0.2,1,0.2c0.1,0,0.3,0,0.4,0
		c0.1,0,0.2,0,0.3,0h0.6h26.6V92.7z"/>
	<path d="M12.3,118.6c0,1.4-0.1,4.8-3.9,4.8c-1.5,0-2.8-0.7-2.8-2.4c0-2.9,3.4-3.2,6.2-3.2h0.5V118.6z M12,116.4
		c-3.4,0-8.2,0.2-8.2,4.7c0,1.2,0.6,3.8,4.4,3.8c1.6,0,3.5-0.9,4.2-2.4l0,0v2.1H14c-0.1-0.9-0.1-1.7-0.1-2.8v-5.9
		c0-3.5-1.4-4.9-4.7-4.9c-1.2,0-2.9,0.4-3.9,0.9v1.6c1.2-0.8,2.5-1.1,3.9-1.1c2.2,0,3,1.1,3,3.4v0.7H12V116.4z"/>
	<path d="M23,112.3c3.1,0,3.9,3,3.9,5.5c0,2.6-0.8,5.5-3.9,5.5c-2.9,0-3.9-3.1-3.9-5.5C19,115.5,20,112.3,23,112.3 M17.4,106.4v18.1
		H19v-2.1h0.1c0.9,1.7,2.2,2.4,4.1,2.4c3.6,0,5.5-3,5.5-7s-1.6-7-5.5-7c-2.6,0-3.9,1.9-4.1,2.6H19v-7.1h-1.6V106.4z"/>
	<path id="XMLID_51_" d="M31.8,111.2v8.5c0,2.9,1.3,5.1,4.5,5.1c2.8,0,3.7-1.5,4.3-2.7h0.1v2.4h1.6c-0.1-1.1-0.1-2.1-0.1-3.1v-10.2
		h-1.7v7.3c0,2.2-0.9,4.8-3.9,4.8c-2.3,0-3.2-1.6-3.2-4.1v-8.1h-1.6V111.2z"/>
	<path d="M53.4,123.4c-3.1,0-3.9-3-3.9-5.5c0-2.6,0.8-5.5,3.9-5.5c2.9,0,3.9,3.1,3.9,5.5C57.3,120.3,56.3,123.4,53.4,123.4
		 M58.9,124.5v-18.1h-1.6v7.1h-0.1c-0.2-0.7-1.5-2.6-4.1-2.6c-3.9,0-5.5,2.9-5.5,7c0,3.9,1.8,7,5.5,7c1.9,0,3.3-0.7,4.1-2.4h0.1v2.1
		h1.6V124.5z"/>
	<path id="XMLID_48_" d="M73,124.5v-7.9c0-3.3-1-5.6-4.5-5.6c-2,0-3.4,1.1-4.1,2.6h-0.1v-7.1h-1.6v18.1h1.6v-7.1
		c0-2.3,1-5.1,3.9-5.1c2.7,0,3.2,2,3.2,4.3v7.9L73,124.5L73,124.5z"/>
	<path d="M84.3,118.6c0,1.4-0.1,4.8-3.9,4.8c-1.5,0-2.8-0.7-2.8-2.4c0-2.9,3.4-3.2,6.2-3.2h0.5V118.6z M86.1,124.5
		c-0.1-0.9-0.1-1.7-0.1-2.8v-5.9c0-3.5-1.4-4.9-4.7-4.9c-1.2,0-2.9,0.4-3.9,0.9v1.6c1.2-0.8,2.5-1.1,3.9-1.1c2.2,0,3,1.1,3,3.4v0.7
		H84c-3.4,0-8.2,0.2-8.2,4.7c0,1.2,0.6,3.8,4.4,3.8c1.6,0,3.5-0.9,4.2-2.4h0.1v2.1h1.6V124.5z"/>
	<path d="M95,112.3c3.1,0,3.9,3,3.9,5.5c0,2.6-0.8,5.5-3.9,5.5c-2.9,0-3.9-3.1-3.9-5.5C91.1,115.5,92.1,112.3,95,112.3 M91.1,122.4
		L91.1,122.4c0.9,1.7,2.3,2.4,4.2,2.4c3.6,0,5.5-3,5.5-7s-1.6-7-5.5-7c-2.6,0-3.9,1.9-4.1,2.6h-0.1v-7.1h-1.6v18.1h1.6V122.4z"/>
	<rect id="XMLID_43_" x="103.8" y="111.2" width="1.6" height="13.3"/>
	<path id="XMLID_42_" d="M14.2,100.9c0-0.6-0.5-1-1-1s-1,0.5-1,1c0,0.6,0.5,1,1,1S14.2,101.4,14.2,100.9"/>
	<path id="XMLID_41_" d="M40.5,100.9c0-0.6-0.5-1-1-1c-0.6,0-1,0.5-1,1c0,0.6,0.5,1,1,1S40.5,101.4,40.5,100.9"/>
	<path id="XMLID_40_" d="M64,82.7c0,0.6,0.5,1,1,1c0.6,0,1-0.5,1-1c0-0.6-0.5-1-1-1C64.4,81.7,64,82.1,64,82.7"/>
	<path id="XMLID_39_" d="M98.2,100.9c0,0.6,0.5,1,1,1c0.6,0,1-0.5,1-1c0-0.6-0.5-1-1-1C98.7,99.8,98.2,100.3,98.2,100.9"/>
	<path id="XMLID_38_" d="M104.7,106.4c-0.6,0-1,0.5-1,1c0,0.6,0.5,1,1,1c0.6,0,1-0.5,1-1C105.7,106.8,105.2,106.4,104.7,106.4"/>
	<path d="M25.4,179.7c0,1.2-0.1,2.6-0.3,4.1s-0.6,2.9-1.3,4.1c-0.6,1.2-1.5,2.3-2.7,3.1c-1.2,0.8-2.8,1.2-4.7,1.2
		c-1.3,0-2.4-0.2-3.2-0.7s-1.5-1-1.9-1.7c-0.5-0.7-0.8-1.5-0.9-2.5c-0.2-1-0.3-1.9-0.3-2.8c0-2.1,0.5-3.8,1.5-5.2
		c1-1.4,2.5-2.5,4.4-3.2l7.1-2.9c1-0.4,1.8-0.9,2.4-1.3v7.8H25.4z M41.5,190.9c-0.6,0.5-1.3,0.8-2,1s-1.4,0.3-2,0.3
		c-0.9,0-1.5-0.2-2-0.7c-0.3-0.3-0.7-1.2-0.7-3.3v-23.7c0-1.8-0.3-3.5-0.8-5.1s-1.5-3.1-2.7-4.5c-1.3-1.3-3-2.4-5-3.1
		c-2-0.8-4.6-1.1-7.6-1.1c-2.5,0-4.7,0.3-6.6,0.9c-1.9,0.6-3.6,1.4-4.9,2.4s-2.3,2.3-3,3.6c-0.6,1.2-0.9,2.4-1,3.7
		c-0.1,0.3-0.1,0.6-0.1,0.9c0,3,2.4,5.4,5.4,5.4c3,0,5.4-2.4,5.4-5.4c0-0.5-0.1-1.1-0.2-1.5l0,0c-0.1-0.3-0.2-0.6-0.4-0.9
		c0-0.1-0.1-0.1-0.1-0.2c-0.4-0.7-1-1.5-1-2.2c0-1.4,0.7-2.4,1.8-3c1.3-0.7,2.9-1,4.9-1c1.5,0,2.7,0.2,3.5,0.6
		c0.8,0.4,1.5,0.9,1.9,1.7c0.5,0.8,0.8,1.7,1,2.9c0.2,1.2,0.3,2.5,0.3,4c0,1.8-0.1,3.3-0.4,4.4c-0.3,1-0.7,1.8-1.4,2.4
		c-0.7,0.7-1.7,1.2-3,1.7s-3.1,1.1-5.2,1.8c-1.8,0.6-3.6,1.1-5.3,1.6c-1.8,0.5-3.4,1.2-4.9,2s-2.8,2-3.7,3.4c-1,1.4-1.4,3.4-1.4,5.7
		c0,3.1,1.4,5.6,2.4,6.6s2.3,1.8,3.9,2.4c1.7,0.6,3.9,0.9,6.6,0.9c2.4,0,4.4-0.3,6-0.8c1.6-0.6,2.9-1.3,3.9-2.1
		c1-0.8,1.7-1.7,2.2-2.7c0.1-0.3,0.3-0.5,0.4-0.8c0.6,1.8,1.4,3.2,2.6,4.3c1.5,1.4,3.9,2.1,7.1,2.1c1.7,0,3.2-0.3,4.5-0.8
		c1.2-0.5,2.2-1.1,3.1-1.8l0.5-0.4l-1.5-2.1L41.5,190.9z"/>
	<path id="XMLID_35_" d="M82.2,156.5c-0.3-1-0.9-2-1.7-2.8s-1.7-1.5-2.9-2s-2.5-0.8-4.1-0.8c-2.1,0-4,0.4-5.5,1.2s-2.8,1.8-3.8,2.9
		c-1.1,1.2-1.9,2.4-2.5,3.6c0,0.1-0.1,0.2-0.1,0.3v-7.1H44.9v2.7h7.3v36.8h-7.3v2.7H70v-2.7h-8.3v-21.1c0-2.6,0.3-4.9,1-6.9
		c0.6-2,1.4-3.7,2.4-5.1c0.9-1.4,1.9-2.4,3-3.1c1-0.7,2-0.9,2.9-1s1.8,0,2.4,0.3c0.7,0.4,1,1.3,0.2,2l0,0c-1,1-1.7,2.4-1.7,3.9
		c0,3,2.4,5.4,5.4,5.4c1.7,0,3.3-0.8,4.3-2.1c0.2-0.3,0.4-0.6,0.6-1c0.3-0.7,0.5-1.5,0.5-2.3c0,0,0,0,0-0.1c0-0.3,0-0.6,0-0.9
		C82.7,158.5,82.5,157.5,82.2,156.5"/>
	<path id="XMLID_34_" d="M94.6,10c2.8,0,5-2.3,5-5c0-2.8-2.3-5-5-5c-2.8,0-5,2.3-5,5C89.6,7.8,91.8,10,94.6,10"/>
	<path id="XMLID_33_" d="M19.5,27.4c3,0,5.4-2.4,5.4-5.4s-2.4-5.4-5.4-5.4S14.1,19,14.1,22C14.2,25,16.6,27.4,19.5,27.4"/>
	<path d="M84.7,30c0.4-2.4,1.6-4.6,3.2-6.5c0.2-0.2,0.4-0.4,0.6-0.6c1.5-1.6,3.7-3.2,6-2.6c0.2,0.1,0.5,0.2,0.7,0.3
		c1.6,0.8,2.9,2.3,3.9,3.7c3.1,4.1,4.3,9.7,2.7,14.6c0,0.1-0.6,1.6-0.7,1.7c-0.1,0.1-0.4,0.2-0.4,0.2h-2.4c0,0-6.9,0-11-3.2
		c-1.4-1.1-2.3-2.7-2.7-4.4C84.5,32.2,84.5,31.1,84.7,30 M4.1,66.6c2.6,2,5.8,3,9.8,3.2l0,0h0.2c0.2,0,0.4,0,0.6,0
		c0.1,0,0.3,0,0.4,0h0.4c14.9,0,20.9-11.5,22.9-16.4l0,0c0-0.1,0-0.1,0.1-0.2c0.3-0.8,0.5-1.5,0.7-1.9c0.1-0.4,0.2-0.8,0.3-1.1h58.3
		c0.2,0,3.7-0.3,5.9-1.9c4.1-3.1,6.4-8.2,6.5-13.9c0-3.4-0.8-7.2-2.3-10.5c-2.6-5.7-6.8-8.9-11.7-9.2c-5.9-0.3-10.1,5.4-11.6,7.9
		c-2.6,4.2-3.5,8.8-2.7,12.9c0.4,1.7,1.2,3.7,2.5,5.4H40.1V27.5h-9.6v22.1c0,10.3-5.5,14.1-7,15.3c-0.7,0.5-1.3,0.8-1.9,1.1
		c-1.7,0.8-3.6,1.3-5.5,1.3c-2.3,0-3.9-0.7-4.9-2.1c-1.1-1.5-1.6-3.4-1.6-5.7V30.6H0v25.9C-0.1,61,1.3,64.4,4.1,66.6"/>
	<path id="XMLID_30_" d="M111.9,185.4c-0.4,2-1.2,3.7-2.5,5.3c-1.2,1.5-2.8,2.2-4.9,2.2c-0.6,0-1.2-0.1-1.8-0.3
		c-0.5-0.2-1.1-0.5-1.6-1s-0.9-1.3-1.2-2.3s-0.5-2.4-0.5-4.1v-30.4h7.5v-2.7h-7.4v-13.6c-0.6,0.6-1.4,1.1-2.2,1.4
		c-0.2,0.1-0.4,0.2-0.7,0.3c-0.2,0.1-0.5,0.1-0.8,0.2c-0.6,0.1-1.2,0.2-1.8,0.2c-1.5,0-2.9-0.4-4.1-1v12.6h-7.3v2.7h7.3v29.4
		c0,3.5,1,6.3,3,8.3s5.5,3,10.4,3c2,0,3.7-0.3,5-1c1.3-0.6,2.5-1.5,3.3-2.5s1.5-2,1.9-3.1c0.4-1,0.7-2,0.9-2.8l0.1-0.6l-2.7-0.9
		L111.9,185.4z"/>
	<path id="XMLID_29_" d="M154.9,103.4c2.2-2.3,4.6-3.5,7.1-4.6c-2.5-1.1-4.9-2.3-7.1-4.6c-4.2-4.6-7.4-10-7.4-20.5v-1.4
		c0,0,0-36.6,0-37.1c-0.2-9.3-1.8-19.8-9.2-26.3c-5.3-5-10-5.9-16.6-6.5c-1-0.1-2.1-0.2-3.2-0.4v0.1c7.1,2.5,11.6,6.7,14.2,12.7
		c2.1,5.1,2.7,11,2.8,20.4v36.7c0,5.9,0.9,8.7,1.8,11.6c1.6,5,5.2,9.1,8.9,11.5c2,1.5,6,2.9,6,3l2.3,0.9l-2.3,0.9c0,0-4.1,1.5-6,3
		c-3.7,2.4-7.3,6.5-8.9,11.5c-0.9,2.9-1.8,5.7-1.8,11.6v36.4c-0.1,9.4-0.7,15.3-2.8,20.4c-2.6,5.9-7.1,10.2-14.2,12.7v0.2
		c1.1-0.1,2.2-0.2,3.2-0.4c6.6-0.7,11.3-1.6,16.6-6.6c7.4-6.5,9-16.9,9.2-26.3c0-0.5,0-37.1,0-37.1v-1.4
		C147.4,113.4,150.6,108,154.9,103.4"/>
	<path id="XMLID_28_" d="M11.2,100.9c0-0.6-0.5-1-1-1c-0.6,0-1,0.5-1,1c0,0.6,0.5,1,1,1S11.2,101.4,11.2,100.9"/>
</g>
</svg>
